# xmcd CD database file
#
# Track frame offsets:
#	150
#	12750
#	24532
#	37618
#	52274
#	64929
#	76503
#	90230
#	100569
#	113980
#	125969
#	137855
#	150520
#	163852
#	176649
#	188811
#
# Disc length: 2667 seconds
#
# Revision: 0
# Processed by: cddbd v1.5.2PL0 Copyright (c) Steve Scherf et al.
# Submitted via: CDex 1.70beta2
#
DISCID=c50a6910
DTITLE=B.B. KING - Electric Blues(The Blues)
DYEAR=1958
DGENRE=Blues
TTITLE0=Why Do Things Happen To Me
TTITLE1=Ruby Lee
TTITLE2=When My Heart Beats Like A Hammer
TTITLE3=Past Day(Don't Have To Cry)
TTITLE4=Boogie Woogie Woman
TTITLE5=Early In The Morning
TTITLE6=I Want To Get Married
TTITLE7=That Ain't The Way To Do It
TTITLE8=Troubles, Troubles, Troubles
TTITLE9=Don't You Want A Man Like Me
TTITLE10=You Know I Go For You
TTITLE11=What Can I Do
TTITLE12=You've Been An Angel(Bonus)
TTITLE13=Be Careful With A Fool(Bonus)
TTITLE14=Don't Look Now, But You Got The Blues(Bonus)
TTITLE15=Days Of Old(Bonus)
EXTD=YEAR: 1958
EXTT0=
EXTT1=
EXTT2=
EXTT3=
EXTT4=
EXTT5=
EXTT6=
EXTT7=
EXTT8=
EXTT9=
EXTT10=
EXTT11=
EXTT12=
EXTT13=
EXTT14=
EXTT15=
PLAYORDER=
